<?xml version="1.0" standalone="no"?><!DOCTYPE svg PUBLIC "-//W3C//DTD SVG 1.1//EN" "http://www.w3.org/Graphics/SVG/1.1/DTD/svg11.dtd"><svg t="1748335085743" class="icon" viewBox="0 0 1024 1024" version="1.1" xmlns="http://www.w3.org/2000/svg" p-id="5212" xmlns:xlink="http://www.w3.org/1999/xlink" width="32" height="32"><path d="M511.1 65.2c-247.4 0-448 200.6-448 448s200.6 448 448 448 448-200.6 448-448-200.6-448-448-448z m-0.3 629.3c-25.5 0-50.4-3.7-73.3-10.4-2.1-0.6-4.7-1.1-6.7-1.1-4.2 0-8.3 1.6-12 3.6L370 715.2c-1.1 1.1-2.6 1.6-4.2 1.6-4.2 0-7.3-3.1-7.3-7.3 0-2.1 0.6-4.2 1.1-5.7 0-1 6.3-23.9 9.9-37.9 0.6-1.6 1.1-3.1 1.1-4.7 0-4.7-2.6-9.3-6.2-12C317.1 615 287 564 287 507.9c0-103.4 100.8-187.1 224.4-187.1 75.9 0 142.8 31.2 183.4 79L468.3 500.7c-2.6 1.1-5.2 1.6-7.8 1.6-4.7 0-8.8-1.6-12.5-3.6l-48.3-34.3c-1.6-1.1-3.1-1.6-4.7-1.6-4.2 0-7.3 3.1-7.3 7.3 0 1.1 0 2.1 0.5 3.1l41 89.4 1.1 2.1c2.6 4.7 7.3 7.8 13 7.8 2.6 0 4.7-0.5 6.7-1.6l1.6-1.1 258.1-149.2c16.1 26 25.5 55.6 25.5 86.8 0 103.4-100.8 187.1-224.4 187.1z" p-id="5213" fill="#d81e06"></path></svg>