<svg width="116" height="32" viewBox="0 0 116 32" fill="none" xmlns="http://www.w3.org/2000/svg">
<path fill-rule="evenodd" clip-rule="evenodd" d="M13.0967 8.3444C13.1902 8.27971 13.2837 8.20964 13.3772 8.13956C13.5641 7.99941 13.7511 7.85926 13.9381 7.76223C13.9381 7.76223 13.9848 7.76223 13.9848 7.71372C14.1784 7.57974 14.372 7.46889 14.581 7.34923L14.581 7.34922C14.6748 7.29557 14.7716 7.24014 14.8729 7.18006C14.8962 7.18006 14.9079 7.16793 14.9196 7.15581C14.9313 7.14368 14.943 7.13155 14.9663 7.13155C15.574 6.79195 16.1816 6.54938 16.836 6.30681C16.8593 6.30681 16.8827 6.29468 16.9061 6.28256C16.9294 6.27043 16.9528 6.2583 16.9762 6.2583C17.3034 6.16127 17.6305 6.06424 17.911 5.96722C17.9577 5.96722 18.0045 5.96722 18.0045 5.9187C18.2849 5.82167 18.6121 5.77316 18.9393 5.72465C18.986 5.72465 19.0328 5.72465 19.0795 5.67613L20.061 5.53059H20.248C20.5752 5.48208 20.9491 5.48208 21.2763 5.48208C21.6502 5.48208 22.0241 5.48208 22.3981 5.53059H22.585C22.772 5.55485 22.9473 5.5791 23.1225 5.60336C23.2978 5.62762 23.4731 5.65187 23.66 5.67613C23.7068 5.67613 23.8003 5.67613 23.847 5.72465C24.1742 5.77316 24.5481 5.87019 24.8753 5.96722C24.8987 5.96722 24.922 5.97934 24.9454 5.99147C24.9688 6.0036 24.9921 6.01573 25.0155 6.01573C25.3894 6.11276 25.7166 6.20978 26.0438 6.35533C25.9815 6.24212 25.9295 6.14508 25.8863 6.06422L25.8862 6.06419C25.7997 5.90251 25.7478 5.8055 25.7166 5.77316C23.5666 2.13461 19.8741 0 15.8544 0C13.4239 0 9.73144 0.873251 6.97376 4.31774C5.15089 6.64641 4.49652 9.36319 4.91719 12.0315C5.19763 13.875 6.17917 16.3492 7.62812 17.9016C8.09553 13.972 10.1521 10.576 13.0967 8.3444ZM29.8298 12.2741C26.9319 8.39296 21.9307 7.27714 17.4436 9.02364L17.8642 9.16918C24.5481 11.5464 28.1471 19.066 25.9036 25.955C25.296 27.7985 24.3611 29.3995 23.1926 30.7094C24.6416 30.2727 26.0905 29.6906 27.3525 28.6718C32.4472 24.6451 33.4755 17.174 29.8298 12.2741ZM12.863 24.354C13.7978 24.5966 14.7794 24.6936 15.8077 24.6936C18.9393 24.6936 21.3698 23.9659 23.7068 22.1709C23.66 23.1897 23.3796 24.354 23.0992 25.0817C20.9491 30.9034 14.6392 33.4261 8.04878 31.1945C2.29972 29.2539 -1.2058 22.2679 0.383372 16.4462C0.804034 14.8938 1.2247 13.8265 2.06602 12.4681C2.53343 16.2037 4.77696 19.8907 8.09552 22.1224C8.32922 22.3164 8.51618 22.6075 8.51618 22.9471C8.51618 23.0926 8.51618 23.1897 8.46944 23.2867C8.23574 24.257 7.90856 25.8094 7.90856 25.9065C7.90856 25.9792 7.89687 26.0399 7.88519 26.1005C7.8735 26.1611 7.86182 26.2218 7.86182 26.2946C7.86182 26.5856 8.09552 26.7797 8.37596 26.7797C8.46944 26.7797 8.56292 26.7312 8.6564 26.6827L11.7413 24.5966C11.975 24.4025 12.2087 24.3055 12.4891 24.3055C12.6293 24.3055 12.7695 24.3055 12.863 24.354Z" fill="#07C160"/>
<path d="M54.416 6.952C54.584 7 54.68 7.072 54.608 7.264C52.832 11.392 50.456 14.608 46.952 17.464C46.832 17.584 46.688 17.584 46.592 17.464L45.44 16.264C45.344 16.144 45.344 16.048 45.464 15.928C48.656 13.456 51.056 10.408 52.592 6.712C52.664 6.592 52.76 6.52 52.88 6.544L54.416 6.952ZM48.344 23.848C50.816 20.848 52.76 17.512 54.392 14.224C54.464 14.104 54.56 14.056 54.68 14.08L56.312 14.464C56.48 14.512 56.576 14.632 56.504 14.8C54.896 18.04 52.616 21.832 50.648 24.352C50.552 24.448 50.6 24.496 50.72 24.496L60.56 23.536C59.528 21.952 58.448 20.392 57.512 19.288C57.392 19.144 57.416 19.048 57.584 18.976L58.928 18.232C59.072 18.16 59.168 18.184 59.24 18.304C60.968 20.56 63.128 23.752 64.688 26.128C64.784 26.272 64.736 26.368 64.592 26.488L63.2 27.352C63.056 27.424 62.936 27.376 62.864 27.256C62.504 26.656 62.12 26.032 61.736 25.384L49.568 26.464C47.888 26.608 47.432 24.952 48.344 23.848ZM57.008 7.048C56.936 6.88 57.008 6.808 57.176 6.76L58.688 6.4C58.832 6.376 58.928 6.448 58.976 6.616C60.656 10.432 62.648 13.168 66.44 15.976C66.56 16.072 66.584 16.192 66.488 16.312L65.456 17.56C65.36 17.68 65.24 17.728 65.12 17.608C61.184 14.488 58.928 11.512 57.008 7.048ZM76.808 26.152C76.688 26.056 76.688 25.936 76.832 25.816C81.344 22.864 82.496 19.6 82.832 15.112L82.952 13.528C82.952 13.36 83.072 13.264 83.216 13.264H84.776C84.944 13.264 85.064 13.384 85.04 13.528L84.92 15.208L84.824 16.216C85.496 19.936 87.152 23.008 91.04 25.72C91.184 25.84 91.16 25.984 91.04 26.08L89.984 27.16C89.864 27.28 89.744 27.28 89.624 27.184C86.672 25.048 84.944 22.816 83.984 20.104C83.048 22.864 81.32 25.072 78.344 27.256C78.248 27.376 78.104 27.352 78.008 27.256L76.808 26.152ZM69.176 25.96C69.056 25.84 69.056 25.696 69.176 25.6C73.088 22.528 73.952 19.6 74.264 14.992L74.36 13.528C74.36 13.36 74.48 13.264 74.624 13.264H76.28C76.424 13.264 76.52 13.384 76.496 13.528L76.376 15.136C76.328 15.904 76.232 16.624 76.136 17.32C77.312 18.424 78.536 19.792 79.88 21.544C79.952 21.664 79.952 21.784 79.832 21.88L78.848 23.104C78.752 23.224 78.56 23.2 78.416 22.984C77.48 21.688 76.544 20.584 75.68 19.648C74.936 22.36 73.544 24.568 70.784 26.968C70.664 27.112 70.544 27.112 70.4 26.992L69.176 25.96ZM69.224 13.888C69.128 13.744 69.176 13.6 69.368 13.552C73.256 12.064 76.184 9.568 78.416 6.856C79.28 5.776 80.84 5.776 81.776 6.952C84.056 9.712 86.936 11.92 90.656 13.336C90.896 13.432 90.968 13.552 90.872 13.696L90.008 15.016C89.912 15.16 89.792 15.208 89.648 15.136C85.448 13.36 82.304 10.936 80.168 8.056C80.096 7.984 80.048 7.984 80 8.056C77.936 10.816 74.888 13.408 70.448 15.352C70.304 15.4 70.184 15.352 70.112 15.232L69.224 13.888ZM110.216 6.736C110.984 6.736 111.44 7.192 111.44 7.984V11.824C111.44 12.616 110.984 13.072 110.216 13.072H97.856C97.088 13.072 96.632 12.616 96.632 11.824V7.984C96.632 7.192 97.088 6.736 97.856 6.736H110.216ZM93.296 16.672V15.424C93.296 15.256 93.392 15.16 93.512 15.16H114.488C114.608 15.16 114.704 15.256 114.704 15.424V16.672C114.704 16.816 114.608 16.912 114.488 16.912H100.088L99.56 19C99.536 19.168 99.608 19.288 99.752 19.288H110.6C111.416 19.288 111.752 19.864 111.68 20.56C111.56 21.784 111.44 23.08 111.2 24.304C110.792 26.32 110.024 26.896 107.384 26.896H102.728C102.584 26.896 102.488 26.824 102.464 26.68L102.128 25.312C102.08 25.144 102.152 25.048 102.32 25.048H106.88C108.608 25.048 108.968 24.88 109.16 23.728C109.28 22.96 109.424 22.072 109.52 21.304C109.544 21.136 109.472 21.04 109.328 21.04H98.264C97.424 21.04 96.968 20.44 97.184 19.576L97.928 16.912H93.512C93.392 16.912 93.296 16.816 93.296 16.672ZM98.6 11.08C98.6 11.224 98.72 11.32 98.864 11.32H109.232C109.4 11.32 109.496 11.224 109.496 11.08V8.728C109.496 8.584 109.4 8.488 109.232 8.488H98.864C98.72 8.488 98.6 8.584 98.6 8.728V11.08Z" fill="#4C4D4E"/>
</svg>
